<svg width="315" height="205" viewBox="0 0 315 205" fill="none" xmlns="http://www.w3.org/2000/svg">
<path d="M187.699 0.400782C182.838 0.767325 179.795 1.13387 169.887 2.69168C166.176 3.27204 161.574 4.37167 157.084 5.71566C150.033 7.85382 137.008 12.4662 135.932 13.2298C135.635 13.4436 133.223 14.5432 130.551 15.6734C127.916 16.8036 124.391 18.3919 122.721 19.1861C121.088 20.0108 118.156 21.2937 116.227 22.0574C113.184 23.2486 112.07 23.5235 107.246 24.1039C102.496 24.7148 101.68 24.7454 101.383 24.3483C101.197 24.1039 101.049 18.8501 101.049 12.5272V1.13387L100.232 1.31714C99.75 1.40878 98.7852 1.68368 98.0801 1.92804C97.375 2.17241 95.6309 2.72222 94.1836 3.14986C87.1328 5.31857 74.0703 11.5803 67.6875 15.8261C66.5371 16.5898 65.0156 17.5367 64.3105 17.9643C60.4883 20.1025 49.207 29.7853 43.3066 35.986C41.043 38.338 37.2578 42.8892 35.1426 45.6994C33.0273 48.6012 28.6855 54.863 28.6855 55.0768C28.6855 55.199 28.1289 56.2681 27.4238 57.4593C26.7188 58.6811 25.6055 60.6971 24.9746 61.9495C24.3438 63.2018 23.5645 64.6375 23.3047 65.1567C21.7461 68.0585 18.4062 76.7945 17.3672 80.7348C17.0332 82.0788 16.5137 84.0642 16.2168 85.1639C15.3633 88.4322 13.8418 97.2292 13.8418 98.8787V100.436H6.90234H0L0.259766 106.637C0.519531 112.899 0.667969 114.182 1.74414 119.375C2.48633 123.101 2.41211 122.857 3.82227 127.316C6.75391 136.846 10.502 144.941 15.5859 152.974C18.1465 157.006 22.2285 162.627 22.7852 162.932C22.9707 163.024 23.75 163.879 24.4922 164.826C29.7988 171.699 41.3398 181.381 50.4688 186.666C51.8418 187.46 54.2539 188.834 55.7754 189.72C60.6367 192.561 71.4355 196.898 78.4121 198.823C87.9492 201.45 94.2207 202.61 103.646 203.466C111.922 204.26 114.334 204.321 120.346 204.015C134.93 203.221 143.576 201.725 155.971 197.784C162.057 195.86 163.541 195.31 170.814 192.256C174.377 190.759 179.572 188.59 182.318 187.46C185.064 186.33 188.59 184.802 190.111 184.13C191.633 183.428 194.305 182.267 196.049 181.534L199.203 180.221L204.955 180.037C208.109 179.915 211.338 179.732 212.08 179.579L213.49 179.304L213.564 190.667L213.676 201.999L214.789 201.908C216.125 201.786 222.842 199.953 225.922 198.823C234.086 195.89 240.654 192.836 245.404 189.781C246.74 188.926 248.893 187.582 250.229 186.818C255.238 183.856 265.146 175.792 269.266 171.301C270.082 170.385 271.455 168.919 272.309 168.094C274.201 166.139 277.912 161.68 279.359 159.572C279.99 158.686 280.658 157.739 280.918 157.495C282.217 156.243 289.602 143.414 290.678 140.604C290.938 139.932 291.531 138.618 292.014 137.641C292.83 136.052 294.648 130.829 296.244 125.484C297.803 120.26 298.953 113.021 299.807 103.399L300.029 100.436H307.266H314.465L314.242 97.9012C313.611 90.8453 312.98 86.9049 311.645 81.8039C311.348 80.7043 310.939 78.9937 310.68 77.9857C310.234 76.0919 306.449 66.4091 304.408 62.0411C303.221 59.5364 297.617 50.1896 295.65 47.471C293.498 44.4776 288.154 37.9409 287.264 37.1467C286.744 36.7191 285.928 35.8944 285.445 35.314C283.627 33.1758 279.656 29.602 275.314 26.2115C268.598 20.9577 266.854 19.797 260.396 16.3149C257.168 14.5432 254.088 12.8327 253.568 12.5272C252.678 11.9774 251.824 11.6414 244.848 8.95345C240.209 7.15128 230.857 4.31057 226.887 3.48585C219.094 1.86695 209.928 0.584054 203.656 0.248056C196.902 -0.118487 194.824 -0.0879421 187.699 0.400782ZM103.09 27.0973C102.867 27.2195 101.383 28.2886 99.75 29.4188C95.1113 32.6566 88.5059 38.3991 85.3887 41.8812C84.6094 42.7365 83.1992 44.2943 82.2715 45.3023C75.4062 52.847 68.9863 63.4462 65.2383 73.5567C64.7188 74.9923 64.0508 76.7639 63.7539 77.5276C62.9004 79.7879 61.7129 84.5835 61.1562 88.1268C59.9688 95.1827 59.7832 97.9929 59.9688 104.866C60.1914 114.487 61.5273 121.574 64.459 129.149C65.1641 130.921 66.0176 133.181 66.3887 134.189C68.6152 140.329 74.5156 150.347 79.4883 156.426C82.0859 159.603 82.1973 159.725 85.6484 163.696C88.0234 166.445 95.8535 173.134 99.1934 175.272L101.234 176.586L99.5645 176.341C96.4473 175.944 87.0215 172.584 82.1602 170.202C73.959 166.2 68.1699 162.321 61.7871 156.701C57.1113 152.547 54.4023 149.767 51.8789 146.56C50.9141 145.307 49.8008 143.994 49.4297 143.658C48.3906 142.681 43.3438 134.739 42.082 132.051C38.9277 125.27 38.334 123.895 37.4434 121.36C33.8438 111.005 33.2871 98.39 35.959 87.4548C37.1094 82.6592 37.7773 80.8875 40.709 74.473C42.2676 71.1436 44.123 67.8142 45.6445 65.6149C46.9805 63.6906 48.502 61.4913 48.9844 60.7277C49.5039 59.964 50.7656 58.3757 51.8418 57.215C52.8809 56.0237 54.1426 54.5881 54.6621 54.0077C55.7383 52.7248 59.1895 49.3037 59.5605 49.1816C59.709 49.1205 60.4512 48.4179 61.2305 47.6237C64.4961 44.2638 74.2559 37.7576 80.9727 34.4587C87.875 31.0682 93.3301 29.1439 100.863 27.3417C103.164 26.7919 103.535 26.7308 103.09 27.0973ZM196.791 28.1053C196.383 28.8384 196.049 29.602 196.049 29.7853C196.049 29.9991 195.455 31.2515 194.713 32.5344C188.256 43.8972 186.66 46.5852 186.178 46.9823C185.695 47.3794 185.51 47.3794 184.434 46.8601C181.502 45.4245 178.756 44.5081 173.412 43.2252C166.287 41.4536 162.168 40.8732 157.232 40.8732C153.818 40.8732 145.691 41.5452 144.021 41.9729C142.76 42.2783 143.354 41.6063 144.949 40.9343C145.803 40.5678 148.029 39.5903 149.848 38.7656C151.703 37.9104 153.521 37.1162 153.93 36.9329C154.338 36.7802 156.639 35.8944 159.088 34.9475C161.5 34.0006 163.541 33.2369 163.652 33.2369C163.764 33.2369 164.803 32.9009 165.953 32.5038C170.666 30.8239 175.156 29.4799 176.344 29.3577C177.049 29.2966 177.902 29.1133 178.311 28.9301C180.352 28.0442 188.812 26.9141 193.896 26.853L197.496 26.8224L196.791 28.1053ZM205.66 27.4333C208.814 27.7999 208.443 27.6166 213.082 31.0988C222.062 37.7576 230.895 46.463 233.975 51.7168C234.42 52.4804 234.939 53.0914 235.088 53.0914C235.236 53.0914 235.385 53.3357 235.385 53.6412C235.385 53.9466 235.533 54.3132 235.719 54.4659C236.201 54.863 242.992 66.1647 243.363 67.1422C243.512 67.5698 243.809 68.0891 244.031 68.3334C244.439 68.7305 245.812 72.6403 245.553 72.6403C245.479 72.6403 244.959 71.9072 244.439 71.0214C242.621 68.0891 234.049 56.4208 232.156 54.3132C231.451 53.5495 229.781 51.6863 228.445 50.1896C227.072 48.6623 224.846 46.3408 223.51 44.9969C222.174 43.6529 220.764 42.2172 220.355 41.8202C216.719 38.1547 210.41 33.1453 204.027 28.8384C200.91 26.7308 200.947 26.7613 201.986 26.9446C202.506 27.0362 204.176 27.2501 205.66 27.4333ZM216.348 28.8384C219.947 29.602 223.436 30.5795 226.293 31.5569C228.705 32.3817 234.234 34.7031 235.311 35.3446C235.867 35.65 237.24 36.4136 238.354 37.0245C242.658 39.3765 244.031 40.2623 247.891 43.1641C251.824 46.0965 253.123 47.1961 256.76 50.6783C259.469 53.2441 259.691 53.4884 262.252 56.6957C269.934 66.3785 273.459 72.2738 276.391 80.4294C276.947 81.9261 277.541 83.5144 277.689 83.9421C278.951 86.8133 280.732 99.6423 280.436 103.552C280.176 107.095 279.396 111.83 278.395 115.923C277.393 120.047 273.459 130.462 272.531 131.44C272.346 131.593 271.678 132.753 271.047 133.975C269.377 137.244 265.926 142.161 261.213 147.934C255.238 155.296 240.766 166.384 232.453 170.049C231.934 170.263 230.635 170.935 229.559 171.485C228.52 172.065 227.592 172.523 227.48 172.523C227.369 172.523 225.699 173.134 223.732 173.898C220.244 175.272 214.529 177.105 213.824 177.105C213.639 177.105 213.49 176.8 213.49 176.433C213.49 176.005 215.197 174.356 218.426 171.637C225.848 165.376 230.486 160.427 236.238 152.669C242.844 143.78 246.926 136.083 250.377 125.942C250.451 125.759 250.562 125.423 250.711 125.178C251.008 124.445 252.789 117.297 253.197 114.976C253.42 113.815 253.68 112.777 253.717 112.685C253.791 112.594 254.051 109.936 254.311 106.82C254.719 101.628 254.57 96.5573 253.754 90.3566C252.863 83.209 248.299 69.2192 244.736 62.7131C241.359 56.5124 236.238 49.0899 232.045 44.2332C227.295 38.7656 217.869 30.7628 213.936 28.8995C212.971 28.4413 212.303 28.0442 212.451 28.0442C212.562 28.0442 214.307 28.4108 216.348 28.8384ZM166.918 44.0194C168.551 44.2943 170.926 44.6914 172.15 44.9663C174.637 45.4856 181.094 47.6237 182.875 48.5096C183.506 48.815 184.619 49.3343 185.361 49.6703C186.697 50.2506 189.48 52.0834 193.229 54.9241C195.121 56.3597 201.096 62.3771 202.877 64.668C205.809 68.4251 209.148 73.4956 210.225 75.8476C214.158 84.3697 215.309 88.1268 216.236 95.7631C217.98 109.906 213.676 124.537 203.99 137.457C201.949 140.176 199.426 143.078 197.348 145.033C195.715 146.621 189.629 151.447 189.295 151.447C189.146 151.447 188.479 151.844 187.811 152.302C184.248 154.807 175.861 157.953 168.996 159.358C155.488 162.138 139.531 159.908 128.139 153.677C123.352 151.05 118.23 147.018 114.445 142.833C113.184 141.459 111.885 140.054 111.625 139.779C111.328 139.473 110.846 138.74 110.512 138.129C110.215 137.518 109.547 136.633 109.064 136.174C107.543 134.678 103.758 127.958 102.014 123.651C97.041 111.372 96.1875 99.3674 99.416 87.1493C100.752 82.1399 103.016 76.7334 105.65 72.3349C108.211 68.1196 112.367 62.4993 113.889 61.2469C114.408 60.7888 115.299 59.8419 115.893 59.1393C117.191 57.4593 123.426 52.2972 125.541 51.1059C126.469 50.6172 127.285 50.1285 127.396 50.0368C127.508 49.9452 128.77 49.3037 130.18 48.6012C133.742 46.8601 141.238 44.7219 145.766 44.111C147.807 43.8667 149.885 43.5612 150.404 43.5001C152.26 43.2252 164.023 43.5918 166.918 44.0194ZM240.951 59.9335C240.951 60.3 240.766 60.1473 240.246 59.2004C239.838 58.4673 239.838 58.4673 240.357 59.0171C240.691 59.3531 240.951 59.7502 240.951 59.9335ZM80.8984 102.88C81.1953 110.669 83.6074 125.728 85.8711 133.425C86.9102 137.03 90.7695 146.713 92.5508 150.225C96.8926 158.717 103.164 167.422 109.361 173.592C111.031 175.242 112.924 177.319 112.924 177.472C112.924 177.533 111.625 177.533 110.066 177.441C107.58 177.349 106.912 177.197 105.316 176.341C104.314 175.792 103.127 175.059 102.719 174.661C102.311 174.295 101.309 173.592 100.492 173.134C96.7441 170.996 89.4707 164.368 84.0898 158.198C79.4141 152.822 72.6602 142.65 70.6562 138.007C70.248 137.091 69.4316 135.166 68.7637 133.731C68.1328 132.295 67.4648 130.646 67.3164 130.065C67.1309 129.485 66.3887 127.133 65.6836 124.873C63.3828 117.725 62.752 114.121 62.5664 106.912L62.3809 100.436L71.584 100.498L80.8242 100.589L80.8984 102.88ZM132.406 158.472C133.037 158.595 134.521 159.053 135.746 159.48C139.568 160.886 147.844 162.443 153.447 162.81C160.758 163.329 166.473 162.749 174.451 160.672C175.082 160.488 175.639 160.397 175.639 160.458C175.639 160.702 170.184 163.36 168.773 163.818C167.957 164.062 167.029 164.429 166.658 164.582C166.324 164.734 164.543 165.345 162.725 165.926C160.869 166.506 158.42 167.392 157.195 167.85C150.107 170.752 137.342 174.723 130.922 176.036C126.951 176.83 120.271 177.747 120.012 177.533C119.715 177.319 123.24 170.141 127.025 163.207C127.211 162.871 127.953 161.527 128.695 160.183C129.771 158.198 130.105 157.831 130.625 158.014C130.996 158.136 131.812 158.35 132.406 158.472Z" fill="black"/>
</svg>
