<svg width="74" height="44" viewBox="0 0 74 44" fill="none" xmlns="http://www.w3.org/2000/svg">
<path d="M43.7175 0.0853639C42.5852 0.163443 41.8765 0.241524 39.5687 0.573359C38.7044 0.696984 37.6327 0.93122 36.5868 1.21751C34.9446 1.67297 31.9108 2.65546 31.6602 2.81813C31.591 2.86367 31.0292 3.09791 30.4069 3.33865C29.7932 3.5794 28.9721 3.91773 28.5832 4.08691C28.2029 4.26258 27.5201 4.53586 27.0706 4.69852C26.3619 4.95228 26.1026 5.01084 24.979 5.13447C23.8726 5.2646 23.6825 5.2711 23.6133 5.18652C23.5701 5.13447 23.5355 4.01534 23.5355 2.66848V0.241522L23.3454 0.280562C23.233 0.300082 23.0083 0.35864 22.8441 0.410693C22.6799 0.462745 22.2736 0.579866 21.9365 0.670958C20.2943 1.13292 17.2519 2.46677 15.7653 3.37118C15.4973 3.53385 15.143 3.73555 14.9787 3.82664C14.0885 4.2821 11.4609 6.34469 10.0867 7.66552C9.55942 8.16653 8.67781 9.13601 8.18515 9.73461C7.69248 10.3527 6.68122 11.6866 6.68122 11.7321C6.68122 11.7582 6.55157 11.9859 6.38735 12.2396C6.22313 12.4999 5.96383 12.9293 5.8169 13.1961C5.66996 13.4629 5.48846 13.7687 5.42795 13.8793C5.06494 14.4974 4.28705 16.3583 4.04504 17.1977C3.96725 17.4839 3.84624 17.9069 3.7771 18.1411C3.5783 18.8373 3.22393 20.7112 3.22393 21.0626V21.3944H1.60764H0L0.0605027 22.7152C0.121005 24.0491 0.155578 24.3223 0.406232 25.4285C0.579097 26.2223 0.561811 26.1702 0.890254 27.1202C1.57307 29.1502 2.44604 30.8745 3.63016 32.5857C4.22654 33.4446 5.1773 34.6418 5.30695 34.7068C5.35016 34.7264 5.53167 34.9085 5.70454 35.1102C6.94052 36.5742 9.62857 38.6368 11.7548 39.7624C12.0746 39.9316 12.6364 40.2244 12.9908 40.4131C14.1231 41.0182 16.6382 41.9421 18.2632 42.3521C20.4845 42.9116 21.9452 43.1589 24.1406 43.3411C26.068 43.5102 26.6298 43.5232 28.03 43.4582C31.4268 43.289 33.4407 42.9702 36.3275 42.1308C37.745 41.7209 38.0908 41.6038 39.7848 40.9531C40.6146 40.6343 41.8246 40.1724 42.4642 39.9316C43.1038 39.6909 43.9249 39.3655 44.2793 39.2224C44.6337 39.0727 45.256 38.8255 45.6622 38.6693L46.3969 38.3896L47.7366 38.3505C48.4713 38.3245 49.2232 38.2855 49.3961 38.2529L49.7246 38.1944L49.7418 40.6148L49.7678 43.0287L50.0271 43.0092C50.3382 42.9832 51.9026 42.5928 52.62 42.3521C54.5215 41.7274 56.0514 41.0768 57.1577 40.4261C57.4689 40.2439 57.9702 39.9576 58.2814 39.795C59.4482 39.1638 61.7559 37.4461 62.7153 36.4896C62.9055 36.2944 63.2253 35.9821 63.4241 35.8064C63.8649 35.39 64.7292 34.4401 65.0663 33.9911C65.2132 33.8024 65.3688 33.6007 65.4293 33.5487C65.7318 33.2819 67.4518 30.5491 67.7025 29.9505C67.763 29.8074 67.9013 29.5276 68.0136 29.3194C68.2038 28.9811 68.6273 27.8684 68.999 26.7298C69.362 25.6172 69.6299 24.0751 69.8287 22.0255L69.8806 21.3944H71.566H73.2428L73.1909 20.8543C73.044 19.3513 72.8971 18.512 72.5859 17.4254C72.5168 17.1911 72.4217 16.8268 72.3612 16.6121C72.2575 16.2087 71.3759 14.1461 70.9005 13.2156C70.6239 12.6821 69.3188 10.6911 68.8607 10.112C68.3594 9.47435 67.1147 8.08194 66.9073 7.91277C66.7863 7.82168 66.5962 7.646 66.4838 7.52238C66.0603 7.06692 65.1355 6.30565 64.1242 5.58342C62.5598 4.46429 62.1535 4.21704 60.6496 3.47529C59.8976 3.09791 59.1803 2.73354 59.0592 2.66848C58.8518 2.55136 58.653 2.47978 57.0281 1.90721C55.9477 1.52332 53.7696 0.918207 52.8448 0.74253C51.0297 0.397681 48.8948 0.124404 47.4341 0.0528322C45.861 -0.0252467 45.377 -0.0187412 43.7175 0.0853639ZM24.0109 5.77211C23.9591 5.79814 23.6133 6.02587 23.233 6.26661C22.1526 6.95631 20.6141 8.17954 19.8881 8.92129C19.7066 9.10348 19.3781 9.43531 19.1621 9.65003C17.5631 11.2572 16.0678 13.5149 15.1948 15.6686C15.0738 15.9744 14.9182 16.3518 14.8491 16.5145C14.6503 16.9959 14.3737 18.0175 14.2441 18.7722C13.9675 20.2753 13.9243 20.8739 13.9675 22.3378C14.0193 24.3874 14.3305 25.8969 15.0133 27.5106C15.1775 27.888 15.3763 28.3694 15.4628 28.5842C15.9813 29.892 17.3556 32.0261 18.5138 33.3209C19.1188 33.9976 19.1448 34.0236 19.9486 34.8695C20.5018 35.4551 22.3255 36.88 23.1034 37.3355L23.5788 37.6153L23.1898 37.5632C22.4638 37.4786 20.2684 36.7629 19.1361 36.2554C17.226 35.403 15.8776 34.5767 14.391 33.3795C13.3019 32.4946 12.671 31.9025 12.0832 31.2193C11.8585 30.9525 11.5992 30.6728 11.5128 30.6012C11.2708 30.393 10.0953 28.7013 9.80143 28.1287C9.06676 26.6842 8.92847 26.3914 8.72103 25.8514C7.88263 23.6457 7.75299 20.9585 8.3753 18.6291C8.64324 17.6076 8.79882 17.2302 9.48163 15.8638C9.84465 15.1546 10.2768 14.4454 10.6312 13.9769C10.9423 13.567 11.2967 13.0985 11.4091 12.9358C11.5301 12.7732 11.824 12.4348 12.0746 12.1876C12.3166 11.9338 12.6105 11.628 12.7315 11.5044C12.9821 11.2311 13.786 10.5024 13.8724 10.4764C13.907 10.4633 14.0798 10.3137 14.2613 10.1445C15.0219 9.4288 17.2951 8.0429 18.8595 7.34019C20.4672 6.61796 21.7377 6.20805 23.4923 5.82416C24.0282 5.70704 24.1146 5.69403 24.0109 5.77211ZM45.8351 5.98683C45.74 6.14298 45.6622 6.30565 45.6622 6.34469C45.6622 6.39023 45.5239 6.657 45.3511 6.93028C43.8472 9.35072 43.4755 9.9233 43.3631 10.0079C43.2508 10.0925 43.2076 10.0925 42.9569 9.98186C42.2741 9.67605 41.6345 9.48086 40.3899 9.20758C38.7304 8.8302 37.771 8.70657 36.6214 8.70657C35.8262 8.70657 33.9334 8.84972 33.5444 8.94081C33.2505 9.00588 33.3888 8.86273 33.7605 8.71959C33.9593 8.64151 34.4779 8.4333 34.9014 8.25762C35.3336 8.07544 35.7571 7.90626 35.8522 7.86723C35.9472 7.83469 36.4831 7.646 37.0536 7.4443C37.6154 7.24259 38.0908 7.07993 38.1167 7.07993C38.1426 7.07993 38.3846 7.00836 38.6526 6.92377C39.7503 6.56591 40.7961 6.27962 41.0727 6.2536C41.2369 6.24058 41.4357 6.20154 41.5308 6.16251C42.0061 5.97381 43.9768 5.73307 45.1609 5.72006L45.9993 5.71355L45.8351 5.98683ZM47.9008 5.84368C48.6355 5.92176 48.5491 5.88272 49.6295 6.62447C51.7211 8.0429 53.7782 9.89728 54.4956 11.0164C54.5993 11.1791 54.7203 11.3092 54.7549 11.3092C54.7895 11.3092 54.8241 11.3613 54.8241 11.4263C54.8241 11.4914 54.8586 11.5695 54.9019 11.602C55.0142 11.6866 56.5959 14.094 56.6824 14.3022C56.7169 14.3933 56.7861 14.5039 56.8379 14.556C56.933 14.6406 57.2528 15.4734 57.1923 15.4734C57.175 15.4734 57.054 15.3173 56.933 15.1286C56.5095 14.5039 54.5129 12.0184 54.0721 11.5695C53.9079 11.4068 53.5189 11.0099 53.2078 10.6911C52.888 10.3657 52.3694 9.87125 52.0582 9.58496C51.7471 9.29867 51.4186 8.99286 51.3236 8.90828C50.4765 8.12749 49.0072 7.06041 47.5205 6.14299C46.7945 5.69403 46.8031 5.70054 47.0451 5.73958C47.1662 5.7591 47.5551 5.80464 47.9008 5.84368ZM50.3901 6.14299C51.2285 6.30565 52.0409 6.51386 52.7065 6.72207C53.2683 6.89775 54.5561 7.39225 54.8068 7.52888C54.9364 7.59395 55.2562 7.75661 55.5155 7.88675C56.5181 8.38775 56.8379 8.57644 57.7368 9.19457C58.653 9.8192 58.9555 10.0534 59.8026 10.7952C60.4335 11.3417 60.4854 11.3938 61.0818 12.077C62.8709 14.1396 63.692 15.3953 64.3748 17.1326C64.5045 17.4514 64.6428 17.7897 64.6774 17.8808C64.9712 18.4925 65.3861 21.2252 65.317 22.0581C65.2565 22.8128 65.0749 23.8213 64.8416 24.6932C64.6082 25.5716 63.692 27.7904 63.4759 27.9986C63.4327 28.0311 63.2771 28.2783 63.1302 28.5386C62.7413 29.2348 61.9375 30.2824 60.8398 31.5121C59.4482 33.0802 56.0773 35.4421 54.1412 36.2229C54.0202 36.2684 53.7177 36.4116 53.4671 36.5287C53.2251 36.6523 53.009 36.7499 52.9831 36.7499C52.9571 36.7499 52.5682 36.88 52.1101 37.0427C51.2976 37.3355 49.9666 37.7259 49.8023 37.7259C49.7591 37.7259 49.7246 37.6608 49.7246 37.5827C49.7246 37.4917 50.1221 37.1403 50.8741 36.5612C52.6028 35.2274 53.6832 34.1733 55.0229 32.5206C56.5614 30.6272 57.5121 28.9876 58.3159 26.8274C58.3332 26.7883 58.3591 26.7168 58.3937 26.6647C58.4629 26.5086 58.8777 24.986 58.9728 24.4915C59.0247 24.2443 59.0852 24.023 59.0938 24.0035C59.1111 23.984 59.1716 23.4179 59.2321 22.7543C59.3272 21.6481 59.2926 20.5681 59.1025 19.2472C58.895 17.7247 57.8319 14.7447 57.0022 13.3588C56.2156 12.0379 55.0229 10.4568 54.0462 9.4223C52.9398 8.25762 50.7445 6.5529 49.8283 6.156C49.6035 6.0584 49.448 5.97382 49.4825 5.97382C49.5085 5.97382 49.9147 6.05189 50.3901 6.14299ZM38.8773 9.37675C39.2576 9.43531 39.8108 9.5199 40.096 9.57846C40.6751 9.68907 42.179 10.1445 42.5939 10.3332C42.7408 10.3983 43.0001 10.5089 43.173 10.5805C43.4841 10.7041 44.1324 11.0945 45.0053 11.6996C45.4461 12.0054 46.8377 13.2872 47.2526 13.7752C47.9354 14.5755 48.7133 15.6556 48.9639 16.1566C49.8801 17.9719 50.1481 18.7722 50.3642 20.3989C50.7704 23.4114 49.7678 26.5281 47.5119 29.2804C47.0365 29.8594 46.4488 30.4776 45.9647 30.894C45.5844 31.2323 44.167 32.2604 44.0892 32.2604C44.0546 32.2604 43.899 32.345 43.7434 32.4426C42.9137 32.9761 40.9603 33.6463 39.3613 33.9456C36.2152 34.5377 32.4986 34.0627 29.8451 32.7353C28.7301 32.1758 27.5374 31.3169 26.6557 30.4255C26.3619 30.1327 26.0594 29.8334 25.9989 29.7749C25.9297 29.7098 25.8174 29.5536 25.7396 29.4235C25.6704 29.2934 25.5148 29.1047 25.4025 29.0071C25.0481 28.6883 24.1665 27.2568 23.7603 26.3394C22.6021 23.7237 22.4033 21.1667 23.1552 18.564C23.4664 17.497 23.9936 16.3453 24.6073 15.4083C25.2037 14.5104 26.1717 13.3132 26.5261 13.0465C26.6471 12.9489 26.8545 12.7472 26.9928 12.5975C27.2953 12.2396 28.7474 11.14 29.2401 10.8863C29.4562 10.7822 29.6463 10.6781 29.6722 10.6585C29.6982 10.639 29.992 10.5024 30.3205 10.3527C31.1502 9.98186 32.8962 9.5264 33.9506 9.39627C34.426 9.34422 34.91 9.27915 35.031 9.26614C35.4632 9.20758 38.2031 9.28566 38.8773 9.37675ZM56.1205 12.7667C56.1205 12.8448 56.0773 12.8122 55.9563 12.6105C55.8613 12.4544 55.8613 12.4544 55.9823 12.5715C56.06 12.6431 56.1205 12.7276 56.1205 12.7667ZM18.8423 21.9149C18.9114 23.5741 19.4732 26.7818 20.0005 28.4215C20.2425 29.1893 21.1414 31.2518 21.5562 32.0001C22.5675 33.8089 24.0282 35.6633 25.4716 36.9776C25.8606 37.329 26.3014 37.7714 26.3014 37.804C26.3014 37.817 25.9989 37.817 25.6358 37.7975C25.0568 37.7779 24.9012 37.7454 24.5295 37.5632C24.2961 37.4461 24.0196 37.2899 23.9245 37.2054C23.8294 37.1273 23.596 36.9776 23.4059 36.88C22.5329 36.4246 20.8388 35.0126 19.5856 33.6983C18.4965 32.5532 16.9235 30.3865 16.4567 29.3975C16.3617 29.2023 16.1715 28.7924 16.0159 28.4866C15.869 28.1807 15.7134 27.8294 15.6788 27.7058C15.6356 27.5821 15.4628 27.0811 15.2985 26.5996C14.7627 25.0771 14.6157 24.3093 14.5725 22.7738L14.5293 21.3944L16.6728 21.4074L18.825 21.4269L18.8423 21.9149ZM30.8391 33.7569C30.986 33.7829 31.3317 33.8805 31.617 33.9716C32.5072 34.2709 34.4347 34.6027 35.7398 34.6808C37.4425 34.7914 38.7736 34.6678 40.6319 34.2254C40.7788 34.1863 40.9085 34.1668 40.9085 34.1798C40.9085 34.2319 39.6379 34.7979 39.3094 34.8955C39.1193 34.9476 38.9032 35.0257 38.8168 35.0582C38.739 35.0907 38.3241 35.2209 37.9006 35.3445C37.4684 35.4681 36.898 35.6568 36.6128 35.7544C34.9619 36.3725 31.9886 37.2184 30.4933 37.4982C29.5685 37.6673 28.0127 37.8625 27.9522 37.817C27.8831 37.7714 28.7042 36.2424 29.5858 34.7654C29.629 34.6938 29.8019 34.4075 29.9748 34.1212C30.2254 33.6983 30.3032 33.6202 30.4242 33.6593C30.5106 33.6853 30.7008 33.7309 30.8391 33.7569Z" fill="black"/>
</svg>
