<svg width="73" height="46" viewBox="0 0 73 46" fill="none" xmlns="http://www.w3.org/2000/svg">
<path d="M43.5726 0.671779C42.4441 0.751715 41.7377 0.831652 39.4376 1.17138C38.5761 1.29795 37.5079 1.53776 36.4655 1.83086C34.8288 2.29716 31.8051 3.30302 31.5552 3.46956C31.4863 3.51619 30.9264 3.756 30.3061 4.00247C29.6945 4.24894 28.8761 4.59533 28.4884 4.76853C28.1094 4.94838 27.4288 5.22816 26.9809 5.3947C26.2745 5.65449 26.016 5.71444 24.8962 5.84101C23.7935 5.97424 23.604 5.9809 23.535 5.8943C23.492 5.84101 23.4575 4.69525 23.4575 3.31635V0.831652L23.268 0.87162C23.156 0.891604 22.932 0.951557 22.7684 1.00485C22.6047 1.05814 22.1998 1.17804 21.8638 1.2713C20.227 1.74426 17.1947 3.10984 15.713 4.03578C15.446 4.20231 15.0928 4.40881 14.9291 4.50207C14.0418 4.96837 11.4229 7.08003 10.0532 8.43229C9.52773 8.94521 8.64904 9.93776 8.15801 10.5506C7.66698 11.1834 6.65907 12.549 6.65907 12.5956C6.65907 12.6223 6.52986 12.8554 6.36618 13.1152C6.2025 13.3817 5.94406 13.8213 5.79762 14.0945C5.65117 14.3676 5.47026 14.6807 5.40996 14.7939C5.04815 15.4267 4.27283 17.3319 4.03163 18.1912C3.95409 18.4843 3.83349 18.9173 3.76457 19.1571C3.56644 19.8699 3.21324 21.7884 3.21324 22.1481V22.4878H1.60231H0L0.0603021 23.8401C0.120604 25.2056 0.155063 25.4854 0.404886 26.6179C0.577177 27.4305 0.559948 27.3772 0.887302 28.3498C1.56785 30.4282 2.43793 32.1934 3.61813 33.9454C4.21253 34.8247 5.16014 36.0504 5.28936 36.117C5.33243 36.137 5.51333 36.3235 5.68563 36.53C6.91751 38.0288 9.59665 40.1405 11.7158 41.2929C12.0346 41.4661 12.5945 41.7658 12.9477 41.959C14.0762 42.5785 16.5831 43.5244 18.2026 43.9441C20.4166 44.517 21.8724 44.7701 24.0605 44.9566C25.9816 45.1298 26.5415 45.1431 27.9371 45.0765C31.3226 44.9033 33.3298 44.5769 36.2071 43.7176C37.6199 43.2979 37.9645 43.178 39.6529 42.5119C40.4799 42.1855 41.686 41.7125 42.3235 41.4661C42.9609 41.2196 43.7793 40.8865 44.1325 40.74C44.4857 40.5868 45.106 40.3336 45.5109 40.1738L46.2431 39.8873L47.5784 39.8473C48.3106 39.8207 49.0601 39.7807 49.2324 39.7474L49.5597 39.6875L49.5769 42.1655L49.6028 44.6369L49.8612 44.6169C50.1713 44.5903 51.7306 44.1906 52.4456 43.9441C54.3408 43.3046 55.8656 42.6385 56.9683 41.9723C57.2784 41.7858 57.778 41.4927 58.0882 41.3262C59.2511 40.68 61.5512 38.9214 62.5074 37.9422C62.697 37.7424 63.0157 37.4226 63.2138 37.2428C63.6532 36.8164 64.5146 35.8439 64.8506 35.3842C64.997 35.191 65.1521 34.9845 65.2124 34.9313C65.5139 34.6581 67.2282 31.8604 67.4781 31.2475C67.5384 31.101 67.6762 30.8145 67.7882 30.6014C67.9777 30.255 68.3998 29.1159 68.7702 27.9501C69.1321 26.811 69.3991 25.2323 69.5972 23.1339L69.6489 22.4878H71.3288H73L72.9483 21.9349C72.8019 20.3961 72.6554 19.5368 72.3453 18.4244C72.2764 18.1845 72.1816 17.8115 72.1213 17.5917C72.0179 17.1787 71.1392 15.067 70.6654 14.1144C70.3898 13.5682 69.089 11.5298 68.6324 10.937C68.1328 10.2841 66.8923 8.85861 66.6855 8.68542C66.5649 8.59216 66.3754 8.4123 66.2634 8.28574C65.8413 7.81944 64.9195 7.04006 63.9116 6.30064C62.3524 5.15489 61.9475 4.90175 60.4485 4.14236C59.6991 3.756 58.9841 3.38296 58.8635 3.31635C58.6567 3.19644 58.4586 3.12317 56.839 2.53697C55.7622 2.14394 53.5913 1.52444 52.6696 1.34458C50.8605 0.991525 48.7327 0.711747 47.2768 0.638472C45.709 0.558535 45.2266 0.565197 43.5726 0.671779ZM23.9313 6.49382C23.8796 6.52047 23.535 6.75362 23.156 7.00009C22.0792 7.7062 20.5458 8.95853 19.8222 9.71793C19.6413 9.90445 19.3139 10.2442 19.0985 10.464C17.5048 12.1094 16.0145 14.4209 15.1444 16.6258C15.0238 16.9389 14.8688 17.3252 14.7999 17.4918C14.6017 17.9847 14.3261 19.0305 14.1968 19.8033C13.9212 21.342 13.8781 21.9549 13.9212 23.4537C13.9729 25.552 14.283 27.0975 14.9635 28.7495C15.1272 29.1359 15.3253 29.6288 15.4115 29.8486C15.9284 31.1876 17.2981 33.3725 18.4524 34.6981C19.0555 35.3909 19.0813 35.4175 19.8825 36.2835C20.4338 36.883 22.2515 38.3419 23.0268 38.8082L23.5006 39.0946L23.1129 39.0413C22.3893 38.9547 20.2012 38.222 19.0727 37.7024C17.1689 36.8297 15.825 35.9837 14.3433 34.7581C13.2578 33.8521 12.629 33.2459 12.0432 32.5465C11.8192 32.2734 11.5608 31.9869 11.4746 31.9136C11.2334 31.7005 10.0618 29.9685 9.76894 29.3823C9.0367 27.9035 8.89887 27.6037 8.69212 27.0508C7.8565 24.7926 7.72728 22.0415 8.34753 19.6567C8.61459 18.6109 8.76965 18.2245 9.4502 16.8256C9.81201 16.0995 10.2427 15.3734 10.5959 14.8938C10.9061 14.4742 11.2593 13.9945 11.3713 13.828C11.4919 13.6615 11.7848 13.3151 12.0346 13.0619C12.2758 12.8022 12.5687 12.4891 12.6893 12.3625C12.9391 12.0827 13.7403 11.3366 13.8264 11.31C13.8609 11.2967 14.0332 11.1435 14.2141 10.9703C14.9722 10.2375 17.2378 8.81865 18.797 8.09922C20.3993 7.3598 21.6657 6.94014 23.4144 6.54712C23.9485 6.42721 24.0347 6.41389 23.9313 6.49382ZM45.6831 6.71365C45.5884 6.87352 45.5109 7.04006 45.5109 7.08003C45.5109 7.12666 45.373 7.39977 45.2007 7.67955C43.7018 10.1576 43.3314 10.7438 43.2194 10.8304C43.1074 10.917 43.0643 10.917 42.8145 10.8037C42.1339 10.4907 41.4965 10.2908 40.256 10.011C38.602 9.62467 37.6457 9.49811 36.5 9.49811C35.7075 9.49811 33.8209 9.64466 33.4332 9.73792C33.1403 9.80453 33.2781 9.65798 33.6486 9.51143C33.8467 9.43149 34.3636 9.21833 34.7857 9.03847C35.2164 8.85195 35.6385 8.67876 35.7333 8.63879C35.8281 8.60548 36.3622 8.4123 36.9307 8.2058C37.4907 7.9993 37.9645 7.83276 37.9903 7.83276C38.0162 7.83276 38.2574 7.75949 38.5244 7.67289C39.6185 7.30651 40.6608 7.01341 40.9365 6.98677C41.1002 6.97344 41.2983 6.93348 41.3931 6.89351C41.8669 6.70033 43.831 6.45386 45.0112 6.44053L45.8468 6.43387L45.6831 6.71365ZM47.742 6.5671C48.4743 6.64704 48.3881 6.60707 49.465 7.36647C51.5497 8.81865 53.6 10.7171 54.315 11.8629C54.4183 12.0294 54.5389 12.1627 54.5734 12.1627C54.6079 12.1627 54.6423 12.2159 54.6423 12.2826C54.6423 12.3492 54.6768 12.4291 54.7198 12.4624C54.8318 12.549 56.4083 15.0137 56.4945 15.2269C56.5289 15.3202 56.5978 15.4334 56.6495 15.4867C56.7443 15.5733 57.063 16.4259 57.0027 16.4259C56.9855 16.4259 56.8649 16.2661 56.7443 16.0729C56.3222 15.4334 54.3322 12.8887 53.8928 12.4291C53.7292 12.2626 53.3415 11.8562 53.0314 11.5298C52.7127 11.1968 52.1958 10.6905 51.8856 10.3974C51.5755 10.1043 51.2482 9.79121 51.1534 9.70461C50.3092 8.90524 48.8447 7.81278 47.363 6.87352C46.6394 6.41389 46.648 6.42055 46.8892 6.46052C47.0098 6.4805 47.3975 6.52713 47.742 6.5671ZM50.223 6.87352C51.0586 7.04006 51.8684 7.25322 52.5317 7.46639C53.0917 7.64624 54.3753 8.15251 54.6251 8.2924C54.7543 8.35901 55.073 8.52555 55.3315 8.65877C56.3308 9.1717 56.6495 9.36488 57.5454 9.99771C58.4586 10.6372 58.7601 10.877 59.6043 11.6364C60.2332 12.196 60.2849 12.2493 60.8793 12.9487C62.6625 15.0604 63.4809 16.346 64.1614 18.1246C64.2907 18.451 64.4285 18.7974 64.4629 18.8907C64.7558 19.5168 65.1693 22.3146 65.1004 23.1673C65.0401 23.94 64.8592 24.9725 64.6266 25.8651C64.394 26.7644 63.4809 29.0359 63.2655 29.2491C63.2224 29.2824 63.0674 29.5355 62.9209 29.802C62.5333 30.5148 61.7321 31.5872 60.6381 32.8462C59.2511 34.4516 55.8914 36.8697 53.9618 37.6691C53.8412 37.7157 53.5397 37.8623 53.2898 37.9822C53.0486 38.1087 52.8333 38.2087 52.8074 38.2087C52.7816 38.2087 52.3939 38.3419 51.9373 38.5084C51.1276 38.8082 49.8009 39.2079 49.6372 39.2079C49.5942 39.2079 49.5597 39.1412 49.5597 39.0613C49.5597 38.968 49.956 38.6083 50.7055 38.0155C52.4284 36.6499 53.5052 35.5707 54.8405 33.8788C56.3738 31.9403 57.3215 30.2616 58.1226 28.05C58.1398 28.0101 58.1657 27.9368 58.2001 27.8835C58.2691 27.7236 58.6826 26.1649 58.7773 25.6586C58.829 25.4055 58.8893 25.179 58.8979 25.159C58.9152 25.139 58.9755 24.5595 59.0358 23.88C59.1305 22.7476 59.0961 21.6418 58.9065 20.2895C58.6998 18.7308 57.6402 15.6799 56.8132 14.261C56.0293 12.9087 54.8405 11.29 53.867 10.2309C52.7643 9.03847 50.5762 7.29319 49.6631 6.88685C49.4391 6.78693 49.284 6.70033 49.3185 6.70033C49.3443 6.70033 49.7492 6.78026 50.223 6.87352ZM38.7484 10.1842C39.1274 10.2442 39.6788 10.3308 39.9631 10.3907C40.5402 10.504 42.0392 10.9703 42.4527 11.1635C42.5991 11.2301 42.8576 11.3433 43.0299 11.4166C43.34 11.5431 43.9861 11.9428 44.8561 12.5623C45.2955 12.8754 46.6824 14.1877 47.0959 14.6873C47.7765 15.5067 48.5518 16.6125 48.8016 17.1254C49.7148 18.9839 49.9818 19.8033 50.1972 21.4686C50.6021 24.5528 49.6028 27.7436 47.3544 30.5614C46.8806 31.1543 46.2948 31.7871 45.8124 32.2134C45.4333 32.5598 44.0205 33.6123 43.943 33.6123C43.9085 33.6123 43.7535 33.6989 43.5984 33.7988C42.7714 34.3451 40.8245 35.0312 39.2308 35.3376C36.0951 35.9438 32.3908 35.4575 29.7462 34.0986C28.6349 33.5257 27.4461 32.6464 26.5674 31.7338C26.2745 31.434 25.973 31.1276 25.9127 31.0677C25.8438 31.001 25.7318 30.8412 25.6542 30.7079C25.5853 30.5747 25.4303 30.3815 25.3183 30.2816C24.9651 29.9552 24.0864 28.4897 23.6815 27.5504C22.5271 24.8726 22.329 22.2546 23.0785 19.5901C23.3886 18.4976 23.9141 17.3186 24.5257 16.3593C25.1201 15.4401 26.085 14.2144 26.4382 13.9412C26.5588 13.8413 26.7655 13.6348 26.9034 13.4816C27.2049 13.1152 28.6521 11.9895 29.1431 11.7297C29.3585 11.6231 29.548 11.5165 29.5739 11.4965C29.5997 11.4765 29.8926 11.3366 30.22 11.1834C31.047 10.8037 32.7871 10.3374 33.8381 10.2042C34.3119 10.1509 34.7943 10.0843 34.9149 10.071C35.3456 10.011 38.0765 10.091 38.7484 10.1842ZM55.9345 13.6548C55.9345 13.7347 55.8914 13.7014 55.7708 13.4949C55.6761 13.3351 55.6761 13.3351 55.7967 13.455C55.8742 13.5282 55.9345 13.6148 55.9345 13.6548ZM18.7798 23.0207C18.8487 24.7194 19.4087 28.0034 19.9342 29.6821C20.1754 30.4681 21.0713 32.5798 21.4848 33.3458C22.4927 35.1977 23.9485 37.0962 25.3872 38.4418C25.7748 38.8015 26.2142 39.2545 26.2142 39.2878C26.2142 39.3011 25.9127 39.3011 25.5509 39.2811C24.9737 39.2611 24.8186 39.2278 24.4482 39.0413C24.2156 38.9214 23.9399 38.7615 23.8452 38.6749C23.7504 38.595 23.5178 38.4418 23.3283 38.3419C22.4582 37.8756 20.7698 36.4301 19.5207 35.0845C18.4352 33.9121 16.8674 31.6938 16.4022 30.6813C16.3074 30.4815 16.1179 30.0618 15.9628 29.7487C15.8164 29.4356 15.6613 29.0759 15.6269 28.9493C15.5838 28.8228 15.4115 28.3098 15.2478 27.8169C14.7137 26.2581 14.5673 25.4721 14.5242 23.9L14.4811 22.4878L16.6175 22.5011L18.7626 22.5211L18.7798 23.0207ZM30.7368 35.1444C30.8833 35.1711 31.2279 35.271 31.5122 35.3642C32.3995 35.6707 34.3205 36.0104 35.6213 36.0903C37.3184 36.2036 38.645 36.077 40.4972 35.624C40.6436 35.5841 40.7728 35.5641 40.7728 35.5774C40.7728 35.6307 39.5065 36.2102 39.1791 36.3102C38.9896 36.3634 38.7743 36.4434 38.6881 36.4767C38.6106 36.51 38.1971 36.6432 37.775 36.7698C37.3442 36.8964 36.7757 37.0895 36.4914 37.1895C34.846 37.8223 31.8826 38.6883 30.3923 38.9747C29.4705 39.1479 27.9199 39.3477 27.8596 39.3011C27.7907 39.2545 28.609 37.6891 29.4877 36.1769C29.5308 36.1037 29.7031 35.8106 29.8754 35.5175C30.1252 35.0845 30.2027 35.0045 30.3233 35.0445C30.4095 35.0711 30.599 35.1178 30.7368 35.1444Z" fill="black"/>
</svg>
